<?xml version="1.0" encoding="iso-8859-1"?>
<!-- Generator: Adobe Illustrator 19.0.0, SVG Export Plug-In . SVG Version: 6.00 Build 0)  -->
<svg version="1.1" id="Layer_1" xmlns="http://www.w3.org/2000/svg" xmlns:xlink="http://www.w3.org/1999/xlink" x="0px" y="0px"
	 viewBox="0 0 512 512" style="enable-background:new 0 0 512 512;" xml:space="preserve">
<path style="fill:#EC6646;" d="M256,512L256,512C115.2,512,0,396.8,0,256l0,0C0,115.2,115.2,0,256,0l0,0c140.8,0,256,115.2,256,256
	l0,0C512,396.8,396.8,512,256,512z"/>
<path style="fill:#BF4231;" d="M509.824,288.704c-40.136-16.7-222.22-91.996-249.152-94.708
	c-30.296-3.052-25.676,27.972-25.676,27.972s-87.808,17.292-99.108,106.804c-17.972,5.084-35.944,8.648-35.944,18.308
	c0,8.4,114.232,132.316,144.136,164.612C248.036,511.88,252.004,512,256,512l0,0C385.72,512,493.628,414.196,509.824,288.704z"/>
<g>
	<g>
		<path style="fill:#DFDEDE;" d="M405.124,343.688c0,13.36-68.132,24.192-152.18,24.192s-152.18-10.832-152.18-24.192
			s68.132-24.192,152.18-24.192S405.124,330.328,405.124,343.688"/>
		<g>
			<path style="fill:#AEABAA;" d="M278.756,219.316c0.008-0.292,0.044-0.576,0.044-0.868c0-13.164-10.952-23.836-24.468-23.836
				c-3.688,0-7.184,0.792-10.32,2.216c-8.356,3.792-14.144,12.048-14.144,21.62c0,0.292,0.032,0.58,0.044,0.868h8.028
				c-0.016-0.292-0.092-0.572-0.092-0.868c0-8.868,7.38-16.06,16.484-16.06c9.104,0,16.484,7.192,16.484,16.06
				c0,0.296-0.072,0.576-0.088,0.868H278.756z"/>
			<path style="fill:#AEABAA;" d="M180.624,368.372c0.144,6.224,4.596,11.272,10.052,11.272c0,0,17.568,4.156,63.56,4.156
				c40.308,0,61.496-4.156,61.496-4.156c5.452,0,9.908-5.048,10.052-11.272"/>
		</g>
		<path style="fill:#474341;" d="M254.236,385.86c-43.452,0-61.508-3.652-63.804-4.156c-6.408-0.148-11.708-6.048-11.872-13.284
			c-0.024-1.144,0.88-2.084,2.016-2.116c1.136,0.02,2.092,0.88,2.112,2.016c0.12,5.104,3.7,9.256,7.988,9.256
			c0.16,0,0.316,0.02,0.472,0.06c0.176,0.04,17.988,4.096,63.092,4.096c39.592,0,60.892-4.072,61.1-4.116
			c4.688-0.04,8.264-4.188,8.38-9.288c0.028-1.144,1.036-1.956,2.108-2.02c1.144,0.024,2.044,0.972,2.02,2.108
			c-0.164,7.328-5.596,13.292-12.112,13.292C315.916,381.712,294.28,385.86,254.236,385.86"/>
		<path style="fill:#DFDEDE;" d="M141.184,343.1c8.192,6.256,197.692,7,224.548-1.744c0.604-0.196,1.252-0.244,1.872-0.364
			c2.18-7.496,3.36-15.32,3.36-23.38c0-54.288-52.4-98.3-117.04-98.3s-117.04,44.012-117.04,98.3c0,8.756,1.38,17.232,3.936,25.312
			C140.944,342.988,141.06,343.008,141.184,343.1"/>
		<g style="opacity:0.43;">
			<g>
				<g>
					<path style="fill:#FDFBF8;" d="M252.676,220.436c-23.964,0-46.232,6.06-64.788,16.44c8.356-1.592,17.04-2.46,25.968-2.46
						c64.64,0,117.04,44.012,117.04,98.3c0,4.768-0.46,9.44-1.248,14.024c16.588-1.032,29.244-2.44,34.836-4.26
						c0.6-0.196,1.248-0.24,1.872-0.364c2.176-7.496,3.36-15.32,3.36-23.38C369.716,264.448,317.316,220.436,252.676,220.436"/>
				</g>
			</g>
		</g>
		<g>
			<path style="fill:#474341;" d="M318.544,316.212c-0.78,0-1.524-0.444-1.872-1.2c-0.48-1.036-0.028-2.26,1.008-2.74l32.72-15.116
				c1.028-0.476,2.26-0.032,2.74,1.008c0.48,1.04,0.028,2.26-1.008,2.74l-32.72,15.116
				C319.128,316.152,318.836,316.212,318.544,316.212"/>
			<path style="fill:#474341;" d="M293.084,327.968c-0.78,0-1.524-0.444-1.872-1.2c-0.48-1.036-0.028-2.26,1.008-2.74l13.876-6.408
				c1.024-0.48,2.26-0.032,2.74,1.008c0.48,1.036,0.028,2.26-1.008,2.74l-13.872,6.408
				C293.672,327.908,293.38,327.968,293.084,327.968"/>
			<path style="fill:#474341;" d="M311.868,330.328c-0.784,0-1.536-0.452-1.884-1.212c-0.468-1.04-0.008-2.264,1.028-2.736
				l38.476-17.444c1.044-0.456,2.264-0.004,2.736,1.028c0.468,1.04,0.008,2.264-1.028,2.736l-38.476,17.444
				C312.448,330.268,312.152,330.328,311.868,330.328"/>
			<path style="fill:#474341;" d="M252.944,371.324c-62.88,0-156.428-7.372-156.428-27.684c0-7.068,9.944-12.58,31.284-17.34
				c1.56-0.348,3.164,0.64,3.52,2.232c0.356,1.588-0.648,3.168-2.236,3.52c-26.368,5.888-26.668,11.356-26.668,11.588
				c0,7.816,50.3,21.784,150.528,21.784s150.528-13.964,150.528-21.784c0-0.228-0.3-5.7-26.656-11.588
				c-1.588-0.352-2.592-1.932-2.236-3.52c0.356-1.592,1.956-2.58,3.52-2.232c21.336,4.76,31.272,10.272,31.272,17.34
				C409.372,363.948,315.82,371.324,252.944,371.324"/>
			<path style="fill:#474341;" d="M214.656,228.368c-1.248,0-2.404-0.796-2.808-2.044c-0.5-1.548,0.352-3.212,1.9-3.716
				c24.296-7.844,51.432-8.276,75.996-1.232c1.564,0.452,2.472,2.084,2.024,3.648c-0.452,1.56-2.068,2.476-3.648,2.024
				c-23.452-6.724-49.372-6.316-72.556,1.172C215.26,228.32,214.956,228.368,214.656,228.368"/>
			<path style="fill:#474341;" d="M266.288,351.484c-19.124,0-39.088-0.256-57.916-0.76c-69.488-1.876-70.624-5.16-71.456-7.56
				l-0.716-2.048c-1.98-5.628-2.5-7.412-2.5-15.032c0-42.528,27.272-81.596,69.484-99.536c1.496-0.632,3.228,0.06,3.872,1.56
				c0.636,1.5-0.064,3.232-1.564,3.868c-40.028,17.012-65.892,53.948-65.892,94.108c0,6.924,0.372,7.984,2.164,13.072l0.412,1.192
				c16.996,6.792,210.4,7.02,223.124,0.212c2.78-6.828,2.776-6.916,2.68-10.676c-0.028-1-0.06-2.212-0.06-3.796
				c0-41.676-27.244-79.176-69.408-95.532c-1.52-0.592-2.272-2.3-1.688-3.82c0.592-1.52,2.3-2.268,3.816-1.688
				c44.456,17.248,73.18,56.904,73.18,101.036c0,1.516,0.028,2.684,0.06,3.64c0.124,4.848-0.028,5.484-3.328,13.588
				c-0.992,2.432-2.488,6.104-58.44,7.616C298.272,351.3,282.584,351.484,266.288,351.484 M142.488,341.22l0.004,0.016
				C142.488,341.232,142.488,341.224,142.488,341.22"/>
			<path style="fill:#474341;" d="M161.24,316.236c-0.096,0-0.192-0.008-0.288-0.02c-1.128-0.156-1.92-1.2-1.76-2.332
				c0.632-4.576,1.66-9.16,3.036-13.612c0.34-1.088,1.5-1.704,2.58-1.364c1.088,0.34,1.7,1.492,1.364,2.58
				c-1.312,4.244-2.284,8.604-2.892,12.96C163.136,315.488,162.248,316.236,161.24,316.236"/>
			<path style="fill:#474341;" d="M167.348,294.412c-0.272,0-0.552-0.052-0.816-0.172c-1.048-0.452-1.532-1.664-1.076-2.708
				c5.196-12.056,12.996-23.064,22.556-31.836c0.832-0.772,2.14-0.724,2.912,0.124c0.772,0.836,0.716,2.148-0.124,2.916
				c-9.128,8.38-16.584,18.904-21.552,30.428C168.908,293.944,168.144,294.412,167.348,294.412"/>
			<path style="fill:#474341;" d="M199.428,255.312c-0.652,0-1.296-0.312-1.7-0.892c-0.648-0.94-0.412-2.228,0.524-2.876
				c16.984-11.72,38.088-18.18,59.424-18.18c1.144,0,2.064,0.924,2.064,2.068s-0.92,2.064-2.064,2.064
				c-20.508,0-40.776,6.2-57.076,17.452C200.244,255.192,199.836,255.312,199.428,255.312"/>
			<path style="fill:#474341;" d="M229.912,221.38c-1.112,0-2.032-0.884-2.064-2.008c-0.032-0.496-0.044-0.708-0.044-0.92
				c0-10.04,6.028-19.268,15.36-23.5c3.516-1.596,7.272-2.404,11.172-2.404c14.628,0,26.532,11.62,26.532,25.904
				c0,0.216-0.012,0.424-0.028,0.64c-0.084,1.116-1.1,2.124-2.176,2.1c-1.12-0.056-2.004-0.808-1.972-1.932
				c0-0.032,0.028-0.436,0.028-0.468c0.016-12.348-10.032-22.116-22.384-22.116c-3.308,0-6.488,0.684-9.464,2.036
				c-7.86,3.568-12.936,11.312-12.936,19.74c0,0.028,0.044,0.776,0.044,0.808c0.032,1.136-0.864,2.092-2.004,2.12L229.912,221.38
				L229.912,221.38z"/>
			<path style="fill:#474341;" d="M237.944,221.38c-1.088,0-2-0.848-2.06-1.952c-0.064-0.448-0.096-0.708-0.096-0.98
				c0-9.996,8.32-18.124,18.552-18.124c10.224,0,18.548,8.128,18.548,18.124c0,0.272-0.032,0.532-0.072,0.792
				c-0.164,1.092-1.124,2.092-2.276,1.936c-1.092-0.108-1.932-0.872-1.872-1.976c0.004-0.064,0.052-0.512,0.064-0.58
				c0.024-7.892-6.44-14.168-14.392-14.168s-14.42,6.28-14.42,13.996c0.008,0.064,0.084,0.688,0.088,0.752
				c0.064,1.136-0.812,2.112-1.948,2.172C238.024,221.38,237.98,221.38,237.944,221.38"/>
			<path style="fill:#474341;" d="M220.076,233.14c-0.272,0-0.544-0.052-0.812-0.168c-5.228-2.212-8.94-7.292-9.448-12.932
				c-0.472-5.268,1.796-10.708,6.064-14.556c0.664-0.6,1.38-1.168,2.092-1.732c1.556-1.232,3.028-2.396,3.752-3.836
				c0.484-0.96,0.708-2.168,0.72-3.916c0.024-4.968-1.528-10.02-4.38-14.212c-0.648-0.952-0.4-2.244,0.548-2.892
				c0.944-0.636,2.244-0.408,2.892,0.548c3.32,4.884,5.128,10.772,5.1,16.584c-0.012,1.632-0.156,3.76-1.164,5.756
				c-1.136,2.268-3.044,3.776-4.884,5.232c-0.64,0.508-1.288,1.016-1.884,1.556c-3.3,2.98-5.06,7.124-4.708,11.092
				c0.368,4.068,3.152,7.88,6.928,9.48c1.056,0.444,1.552,1.664,1.1,2.728C221.656,232.66,220.884,233.14,220.076,233.14"/>
			<path style="fill:#474341;" d="M259.172,187.628c-0.284,0-0.58-0.06-0.856-0.184c-5.208-2.34-8.9-7.684-9.4-13.612
				c-0.464-5.512,1.784-11.224,6.016-15.28c0.664-0.632,1.376-1.232,2.084-1.828c1.564-1.312,3.044-2.552,3.788-4.112
				c0.496-1.048,0.724-2.356,0.732-4.244c0.028-5.316-1.536-10.716-4.408-15.204c-0.62-0.968-0.34-2.256,0.628-2.876
				c0.968-0.616,2.256-0.344,2.876,0.632c3.3,5.156,5.096,11.364,5.064,17.468c-0.008,1.7-0.144,3.916-1.136,6.004
				c-1.136,2.384-3.036,3.98-4.872,5.52c-0.64,0.536-1.284,1.072-1.884,1.644c-3.332,3.192-5.104,7.652-4.748,11.92
				c0.372,4.376,3.168,8.46,6.964,10.164c1.048,0.472,1.516,1.704,1.044,2.752C260.724,187.172,259.964,187.628,259.172,187.628"/>
			<path style="fill:#474341;" d="M297.992,239.468c-0.272,0-0.544-0.052-0.812-0.168c-5.236-2.212-8.944-7.292-9.448-12.932
				c-0.472-5.26,1.796-10.7,6.06-14.556c0.664-0.596,1.372-1.16,2.088-1.728c1.56-1.232,3.032-2.392,3.76-3.836
				c0.484-0.964,0.704-2.172,0.712-3.916c0.028-4.968-1.524-10.02-4.376-14.216c-0.644-0.952-0.4-2.248,0.552-2.892
				c0.952-0.64,2.248-0.392,2.892,0.552c3.316,4.896,5.128,10.784,5.092,16.584c-0.008,1.624-0.144,3.752-1.16,5.76
				c-1.144,2.268-3.052,3.776-4.896,5.236c-0.64,0.508-1.28,1.012-1.876,1.548c-3.296,2.984-5.056,7.128-4.704,11.092
				c0.364,4.068,3.148,7.88,6.928,9.48c1.056,0.444,1.552,1.664,1.1,2.728C299.572,238.992,298.8,239.468,297.992,239.468"/>
		</g>
	</g>
</g>
<g>
</g>
<g>
</g>
<g>
</g>
<g>
</g>
<g>
</g>
<g>
</g>
<g>
</g>
<g>
</g>
<g>
</g>
<g>
</g>
<g>
</g>
<g>
</g>
<g>
</g>
<g>
</g>
<g>
</g>
</svg>
